HIERARCHY
ROOT Hips
{
  OFFSET 0 0 0
  CHANNELS 6 Xposition Yposition Zposition Zrotation Yrotation Xrotation
  JOINT LeftThigh
  {
    OFFSET 8.409438 0 -5.917753
    CHANNELS 3 Zrotation Yrotation Xrotation
    JOINT LeftLeg
    {
      OFFSET 0 0 -42.358652
      CHANNELS 3 Zrotation Yrotation Xrotation
      JOINT LeftFoot
      {
        OFFSET 0 0 -39.357303
        CHANNELS 3 Zrotation Yrotation Xrotation
      }
    }
  }
  JOINT RightThigh
  {
    OFFSET -8.409438 0 -5.917753
    CHANNELS 3 Zrotation Yrotation Xrotation
    JOINT RightLeg
    {
      OFFSET 0 0 -42.358652
      CHANNELS 3 Zrotation Yrotation Xrotation
      JOINT RightFoot
      {
        OFFSET 0 0 -39.357303
        CHANNELS 3 Zrotation Yrotation Xrotation
      }
    }
  }
  JOINT SpineLow
  {
    OFFSET 0 0 4.719101
    CHANNELS 3 Zrotation Yrotation Xrotation
    JOINT SpineMid
    {
      OFFSET 0 0 12.899191
      CHANNELS 3 Zrotation Yrotation Xrotation
      JOINT Chest
      {
        OFFSET 0 0 12.899191
        CHANNELS 3 Zrotation Yrotation Xrotation
        JOINT LeftShoulder
        {
          OFFSET 7.550562 1.41573 9.438202
          CHANNELS 3 Zrotation Yrotation Xrotation
          JOINT LeftArm
          {
            OFFSET 9.155056 0 4.247191
            CHANNELS 3 Zrotation Yrotation Xrotation
            JOINT LeftForearm
            {
              OFFSET 0 0 25.771955
              CHANNELS 3 Zrotation Yrotation Xrotation
              JOINT LeftHand
              {
                OFFSET 0 0 25.197169
                CHANNELS 3 Zrotation Yrotation Xrotation
              }
            }
          }
        }
        JOINT RightShoulder
        {
          OFFSET -7.550562 1.41573 9.438202
          CHANNELS 3 Zrotation Yrotation Xrotation
          JOINT RightArm
          {
            OFFSET -9.155056 0 4.247191
            CHANNELS 3 Zrotation Yrotation Xrotation
            JOINT RightForearm
            {
              OFFSET 0 0 -25.771955
              CHANNELS 3 Zrotation Yrotation Xrotation
              JOINT RightHand
              {
                OFFSET 0 0 -25.197169
                CHANNELS 3 Zrotation Yrotation Xrotation
              }
            }
          }
        }
        JOINT Neck
        {
          OFFSET 0 0 15.101124
          CHANNELS 3 Zrotation Yrotation Xrotation
          JOINT Head
          {
            OFFSET 0 0 11.325843
            CHANNELS 3 Zrotation Yrotation Xrotation
            End Site
            {
              OFFSET 0 0 14.157303
            }
          }
        }
      }
    }
  }
}
MOTION
Frames: 17
Frame Time: 0.0
0.0  101.685394  0.0  1.84619  -0.234682  -121.017043  17.280263  -18.066121  5.833512  -23.32966  23.14705  33.254462  -4.370006  3.473772  -2.381712  9.617568  -24.046504  -106.77582  24.935991  -6.32944  101.499629  -2.303925  -10.345922  2.877217  -3.4759  0.556812  4.829432  -9.349664  2.202816  13.093777  -9.349665  2.202816  13.093777  -5.88673  29.366999  17.818296  168.714329  42.880625  -145.582334  -35.585202  -26.485819  83.434817  89.821607  1.718004  -6.578786  15.057874  -4.666023  32.16699  58.951025  51.776826  0.370047  -47.392269  32.842585  -89.665994  81.251373  -8.28165  17.563126  8.667865  1.250032  -4.568575  6.510416  0.872989  -3.444849  
0.0  101.685394  0.0  2.578103  -0.965051  -120.729398  17.687367  -17.524747  5.365124  -22.637866  23.379411  34.037148  -4.26426  3.502032  -2.481393  8.884766  -21.383456  -106.801606  22.348154  -6.734344  100.672221  -1.473778  -11.046645  2.954208  -3.734158  0.680548  4.330508  -10.052034  2.51461  11.704662  -10.052035  2.51461  11.704662  -2.065787  29.228082  20.129758  167.387329  43.506365  -147.307676  -36.732285  -27.37479  84.100654  88.569903  0.34777  -7.856565  16.726461  -4.575212  34.108611  63.332591  53.78632  4.653841  -48.430836  28.602719  -89.402435  83.580513  -9.179068  18.143632  9.789939  1.264208  -2.692877  7.347894  0.905311  -2.040453  
0.0  101.685394  0.0  3.307714  -1.971702  -120.616446  18.076789  -16.994559  5.061923  -21.890295  23.51374  34.779907  -3.713858  3.66539  -2.498562  9.41537  -22.127236  -106.560312  23.37259  -6.19461  100.386285  -0.120143  -11.69271  3.157533  -3.764969  0.807938  3.992171  -10.131253  2.814992  10.762012  -10.131252  2.814992  10.762011  -0.177177  28.805874  21.11158  166.257505  44.783185  -149.020362  -38.070368  -27.253651  84.617572  86.647606  0.233614  -8.895286  17.500127  -4.719239  35.280916  66.906896  55.418991  8.194955  -49.97054  26.18994  -88.899472  86.136837  -10.133479  17.650236  10.200257  0.985972  -1.207894  7.651988  0.719557  -0.922663  
0.0  101.685394  0.0  3.777636  -3.246779  -120.507562  18.528903  -16.7457  4.736883  -21.254378  23.579092  35.255608  -3.109572  3.830404  -2.468235  10.30676  -24.216406  -105.533007  25.203782  -5.073572  100.278811  1.219008  -11.812551  3.517122  -3.714516  0.88034  3.774224  -9.993665  2.971213  10.159586  -9.993665  2.971213  10.159585  1.059587  28.200912  21.624795  166.187727  46.201647  -149.494946  -38.992426  -26.106239  85.161156  85.736177  0.10532  -9.443245  18.073576  -4.665818  35.986856  68.070268  56.399697  9.48784  -51.066779  26.878358  -88.915479  86.527016  -10.911272  16.588294  10.329022  0.629336  -0.045305  7.746735  0.471396  -0.044632  
0.0  101.685394  0.0  3.947767  -4.487932  -120.391638  18.871237  -16.777571  4.491802  -20.397183  23.475549  35.644116  -2.672311  3.986871  -2.396651  11.089452  -26.730024  -103.992014  26.931847  -3.938143  100.607603  1.959086  -11.393497  4.06686  -3.62855  0.895387  3.629938  -9.764296  2.978078  9.76815  -9.764296  2.978078  9.76815  1.993859  27.484825  21.96139  166.511736  47.410224  -149.483645  -39.161418  -25.646044  85.338428  85.27641  -0.736966  -10.11049  18.469206  -4.757361  36.272329  67.940983  57.070541  9.884536  -51.677096  27.800811  -89.470062  85.754019  -11.530868  15.463544  10.263947  0.31969  0.841116  7.697518  0.253981  0.625675  
0.0  101.685394  0.0  4.057414  -5.421964  -120.312929  18.996779  -16.820456  4.386929  -19.470514  23.263375  35.968862  -2.763595  4.12474  -2.438938  11.090002  -28.510596  -101.927443  27.836955  -3.354378  101.469928  2.01791  -10.708353  4.710173  -3.473069  0.860333  3.604479  -9.346202  2.856473  9.711138  -9.346203  2.856473  9.711139  1.944636  26.94676  21.64185  166.594947  48.371503  -149.438576  -38.991938  -26.125359  85.307398  84.302363  -1.864705  -10.89334  18.205229  -4.669131  35.958153  67.497397  57.738454  10.143127  -51.525105  27.884352  -89.448687  85.799759  -11.72756  15.182906  9.833416  0.20999  1.18117  7.374681  0.176555  0.882768  
0.0  101.685394  0.0  4.236268  -6.094491  -120.083476  19.105893  -16.773764  4.220347  -18.632226  23.151479  36.171897  -2.894012  4.206832  -2.468071  8.883899  -27.695499  -100.657556  26.493096  -4.949441  103.757117  1.845334  -10.277196  5.48828  -3.304119  0.826803  3.598669  -8.89019  2.739931  9.707643  -8.89019  2.73993  9.707642  1.588837  26.475079  21.028954  166.353548  49.214958  -149.420591  -38.949218  -26.641063  85.359457  82.989097  -3.070581  -11.262477  17.600663  -4.535799  35.357528  67.566373  58.335913  10.888677  -51.340269  27.253411  -89.524046  86.421616  -11.974628  15.337758  9.329631  0.169015  1.19739  6.996919  0.145084  0.895709  
0.0  101.685394  0.0  4.429845  -6.662552  -119.772881  19.226521  -16.689374  3.906332  -17.774884  23.146391  36.40237  -3.259557  4.179971  -2.581942  7.196389  -27.445997  -97.919167  26.803987  -5.839461  104.927594  1.480051  -10.351817  6.424942  -3.125001  0.790168  3.615024  -8.405923  2.616248  9.764911  -8.405923  2.616248  9.764911  1.024892  26.084702  20.180725  165.98905  50.116472  -149.405443  -38.980953  -26.956454  85.372759  81.673982  -4.281096  -11.434469  16.89386  -4.485986  34.501681  68.137902  58.766823  12.219492  -51.120077  26.695166  -89.608239  86.9788  -11.95541  15.433138  8.805176  0.158226  0.970814  6.603646  0.132691  0.72601  
0.0  101.685394  0.0  4.587002  -7.274873  -119.314561  19.61195  -16.757118  3.425242  -16.75293  23.075929  36.753534  -3.767625  4.141959  -2.732817  6.844351  -26.539708  -95.31934  27.74948  -4.762  106.530481  2.149592  -11.031271  7.230309  -2.957656  0.750849  3.649828  -7.953505  2.488869  9.871728  -7.953506  2.488869  9.871728  0.451033  25.775138  19.096345  165.936929  50.668559  -149.214506  -38.691095  -27.361479  85.461129  81.123693  -5.286961  -11.644742  16.31634  -4.487143  33.467722  69.002907  59.063161  13.864351  -50.115624  26.540795  -89.652475  87.977492  -12.852524  15.649157  8.399572  0.153636  0.514702  6.299551  0.122329  0.384  
0.0  101.685394  0.0  4.767299  -7.934549  -118.82123  20.063772  -16.798676  2.914069  -15.863558  22.940205  36.94356  -4.321955  4.16082  -2.874072  6.19068  -25.680803  -92.294403  27.318353  -3.536805  108.242668  2.718046  -9.906155  7.956446  -2.775288  0.730379  3.691936  -7.457284  2.410829  9.99649  -7.457284  2.410829  9.99649  -0.205148  25.467809  18.007397  165.45487  51.778237  -149.283528  -38.755821  -27.692628  85.16933  81.014318  -6.147356  -11.94002  15.775974  -4.568781  32.41642  70.163792  59.127687  15.727251  -49.624019  26.800784  -89.777876  87.523849  -12.991087  15.11711  8.037751  0.101257  -0.071013  6.028323  0.075024  -0.054602  
0.0  101.685394  0.0  4.983442  -8.618881  -118.270752  20.645014  -16.857364  2.457833  -14.647645  22.657619  37.220064  -5.07002  4.075556  -3.043032  6.839827  -24.51098  -87.745628  25.030524  -0.056762  110.047678  3.107053  -6.808516  7.388653  -2.590643  0.72459  3.730034  -6.952993  2.371319  10.108555  -6.952992  2.371319  10.108555  -1.064574  25.138443  16.917049  165.604786  52.428887  -148.84302  -38.58252  -28.355757  84.967657  80.765822  -6.961663  -12.144823  15.269086  -4.583251  31.42402  71.677266  58.972751  17.634306  -47.773121  25.2516  -90.173198  87.614082  -13.532139  15.80593  7.723249  0.015644  -0.755404  5.792466  0.002187  -0.566858  
0.0  101.685394  0.0  5.299426  -9.397069  -117.623582  21.284435  -16.763526  2.009635  -13.760643  22.504651  37.120855  -5.388952  4.048735  -3.116679  6.207694  -24.781083  -83.304402  24.305339  0.929113  111.357877  2.132817  -3.976631  7.20814  -2.412696  0.750811  3.727373  -6.463899  2.415464  10.105931  -6.463899  2.415464  10.105932  -1.563313  24.855457  16.087872  165.667188  53.36289  -148.48041  -38.652627  -28.696687  84.883248  80.294114  -7.630121  -12.161042  14.949215  -4.590389  30.60359  73.125037  58.690204  19.2081  -47.18608  23.774945  -90.469637  85.73389  -13.876732  16.378259  7.528709  -0.134654  -1.417908  5.646253  -0.118481  -1.061962  
0.0  101.685394  0.0  5.596149  -10.314876  -116.997179  22.082027  -16.718667  1.585189  -13.009093  22.404888  36.919639  -5.61121  3.995681  -3.161662  5.981003  -24.76683  -78.724367  24.36865  2.415804  112.305942  1.396484  -2.07301  7.147085  -2.26591  0.782791  3.687736  -6.060448  2.476716  10.0008  -6.060448  2.476716  10.000799  -1.743783  24.66023  15.525746  166.24689  53.960944  -147.706461  -39.233892  -29.337977  84.304455  79.573761  -8.956795  -11.273  14.867883  -4.549408  29.984764  74.935649  58.041237  20.718904  -44.85904  20.970352  -91.363044  83.684415  -13.144151  19.194663  7.504236  -0.284564  -2.01216  5.627301  -0.238177  -1.505892  
0.0  101.685394  0.0  5.822347  -11.131212  -116.34582  22.696682  -16.679934  1.112047  -12.142189  22.255387  36.827986  -5.843398  3.992659  -3.19519  5.814628  -24.491859  -73.98985  24.727322  4.687609  113.159794  1.164523  -0.435575  6.891116  -2.167361  0.82351  3.613328  -5.788812  2.566433  9.798229  -5.788812  2.566433  9.798229  -1.500629  24.571449  15.289996  166.95665  54.559538  -146.657667  -39.177862  -29.811065  84.473718  79.020334  -9.341551  -11.072869  15.124974  -4.597084  29.657896  76.158439  57.212999  21.695261  -44.558716  20.232241  -91.017639  85.411168  -13.815103  19.379954  7.62891  -0.472859  -2.462423  5.719855  -0.385464  -1.841244  
0.0  101.685394  0.0  5.927632  -11.841583  -115.676231  23.047328  -16.552866  0.442305  -11.466531  22.21717  36.74449  -5.916684  4.006218  -3.177899  5.487056  -23.642828  -69.301231  24.802318  7.040092  113.847421  1.047178  1.166711  6.614089  -2.171302  0.874965  3.457154  -5.799063  2.693749  9.367193  -5.799063  2.693749  9.367193  -0.781794  24.506913  15.564382  168.222074  55.008986  -145.288899  -39.540046  -30.321235  84.351057  78.140975  -10.259554  -10.428842  15.73238  -4.832392  29.712453  77.33565  56.264829  22.702546  -45.368428  22.170058  -90.492128  87.008612  -14.854847  17.56935  8.008424  -0.703796  -2.641605  6.003334  -0.562592  -1.972357  
0.0  101.685394  0.0  5.96074  -12.416257  -114.884457  23.410157  -16.466963  -0.312331  -10.752742  22.147702  36.793656  -6.064041  3.99844  -3.209193  5.290353  -22.274292  -64.914404  24.392227  9.423556  114.387471  0.665838  2.891374  6.281926  -2.125128  0.903005  3.293719  -5.676543  2.749895  8.920397  -5.676543  2.749895  8.920398  -0.34761  24.550317  15.846989  169.260021  55.551107  -143.938761  -39.629341  -30.716402  84.692755  77.483824  -10.6414  -10.232128  16.110206  -4.983521  29.891451  77.746235  55.368656  23.078691  -46.674092  24.869288  -90.558482  86.718563  -15.375601  15.339597  8.128135  -0.943739  -2.79824  6.091795  -0.745198  -2.086517  
0.0  101.685394  0.0  5.567777  -13.322807  -114.270167  23.392625  -16.504684  -1.36703  -9.615673  21.822314  37.296755  -6.120808  4.05265  -3.207479  5.440647  -21.209828  -60.455256  23.808474  11.797872  114.731576  -0.060703  4.517899  5.847007  -2.114999  0.848538  3.163994  -5.661474  2.589165  8.570644  -5.661474  2.589165  8.570644  0.640044  24.796238  16.177505  170.128343  55.794419  -142.465661  -39.61294  -31.392634  85.111526  77.037832  -10.908922  -10.139973  16.913473  -4.959485  30.091465  79.00332  53.846317  23.669007  -48.122902  27.43953  -90.271166  86.621005  -15.723997  13.269408  8.43168  -1.090735  -2.89499  6.318571  -0.858211  -2.156612  
